# xmcd
#
# Track frame offsets:
#	150
#	15405
#	29324
#	43458
#	60613
#	77528
#	94769
#	108048
#	119796
#	138549
#	153519
#	168921
#	179250
#	191848
#	213051
#	234163
#	246186
#	263827
#	275993
#	288894
#
# Disc length: 4033 seconds
#
# Revision: 1
# Processed by: cddbd v1.5.2PL0 Copyright (c) Steve Scherf et al.
# Submitted via: audiograbber 1.83.01
#
DISCID=180fbf14
DTITLE=The LenneRockers - High Class Lady
DYEAR=1900
DGENRE=
TTITLE0=Will You Miss Me When I'm Gone
TTITLE1=Pin Up Girl
TTITLE2=Rattlesnake Cafe
TTITLE3=Huddersfield
TTITLE4=High Class lady
TTITLE5=White Mice, Pink Elephants And Strong Brown Liquer
TTITLE6=Been There, Done That
TTITLE7=The Girl In My Dreams
TTITLE8=Down In Louisiana
TTITLE9=Boogie Woogie Queen
TTITLE10=Incarnation Of Rock'N'Roll
TTITLE11=Skifflebilly Bop
TTITLE12=Svandinavian Rock
TTITLE13=Mississippi Delta Blues
TTITLE14=Rockin' On A Sea Cruise
TTITLE15=Hometown Heartbreak
TTITLE16=United Kingdom Of Rock'N'Roll
TTITLE17=Coupe De Wille
TTITLE18=Woman, Booze And Rock'N'Roll
TTITLE19=Das Unbekannte Bild
EXTD=
EXTT0=
EXTT1=
EXTT2=
EXTT3=
EXTT4=
EXTT5=
EXTT6=
EXTT7=
EXTT8=
EXTT9=
EXTT10=
EXTT11=
EXTT12=
EXTT13=
EXTT14=
EXTT15=
EXTT16=
EXTT17=
EXTT18=
EXTT19=
PLAYORDER=
